<?xml version="1.0" encoding="UTF-8"?>
<mxfile host="app.diagrams.net" modified="2025-01-01T00:00:00.000Z" agent="5.0" etag="cfb-draft" version="24.7.0" type="device">
  <diagram name="Mock vs Real Draft Flows" id="draft-comparison">
    <mxGraphModel dx="1434" dy="766" grid="1" gridSize="10" guides="1" tooltips="1" connect="1" arrows="1" fold="1" page="1" pageScale="1" pageWidth="1400" pageHeight="900" background="#FAEEE1" math="0" shadow="0">
      <root>
        <mxCell id="0" />
        <mxCell id="1" parent="0" />
        
        <!-- Title -->
        <mxCell id="title" value="Mock Draft vs Real Draft Flows" style="text;html=1;strokeColor=none;fillColor=none;align=center;verticalAlign=middle;whiteSpace=wrap;rounded=0;fontSize=24;fontStyle=1;fontColor=#5B2E0F;" parent="1" vertex="1">
          <mxGeometry x="500" y="20" width="400" height="40" as="geometry" />
        </mxCell>
        
        <!-- Mock Draft Section -->
        <mxCell id="mock-section" value="" style="rounded=1;whiteSpace=wrap;html=1;fillColor=#FEF3C7;strokeColor=#F59E0B;strokeWidth=2;dashed=1;" parent="1" vertex="1">
          <mxGeometry x="50" y="100" width="600" height="700" as="geometry" />
        </mxCell>
        
        <mxCell id="mock-title" value="🎮 Mock Draft (Practice)" style="text;html=1;strokeColor=none;fillColor=none;align=center;verticalAlign=middle;whiteSpace=wrap;rounded=0;fontSize=18;fontStyle=1;fontColor=#92400E;" parent="1" vertex="1">
          <mxGeometry x="250" y="110" width="200" height="30" as="geometry" />
        </mxCell>
        
        <!-- Mock Draft Flow -->
        <mxCell id="mock-1" value="Create Mock Draft" style="rounded=1;whiteSpace=wrap;html=1;fillColor=#FDE68A;strokeColor=#F59E0B;" parent="1" vertex="1">
          <mxGeometry x="100" y="160" width="120" height="60" as="geometry" />
        </mxCell>
        
        <mxCell id="mock-2" value="Select Teams/Rounds" style="rounded=1;whiteSpace=wrap;html=1;fillColor=#FDE68A;strokeColor=#F59E0B;" parent="1" vertex="1">
          <mxGeometry x="280" y="160" width="120" height="60" as="geometry" />
        </mxCell>
        
        <mxCell id="mock-3" value="Start Immediately" style="rounded=1;whiteSpace=wrap;html=1;fillColor=#FDE68A;strokeColor=#F59E0B;" parent="1" vertex="1">
          <mxGeometry x="460" y="160" width="120" height="60" as="geometry" />
        </mxCell>
        
        <mxCell id="mock-arrow-1" value="" style="endArrow=classic;html=1;strokeColor=#F59E0B;strokeWidth=2;" parent="1" source="mock-1" target="mock-2" edge="1">
          <mxGeometry width="50" height="50" relative="1" as="geometry" />
        </mxCell>
        
        <mxCell id="mock-arrow-2" value="" style="endArrow=classic;html=1;strokeColor=#F59E0B;strokeWidth=2;" parent="1" source="mock-2" target="mock-3" edge="1">
          <mxGeometry width="50" height="50" relative="1" as="geometry" />
        </mxCell>
        
        <!-- Mock Features -->
        <mxCell id="mock-features" value="Features:&#xa;✅ Instant start&#xa;✅ AI fills empty slots&#xa;✅ Reset anytime&#xa;✅ Practice unlimited&#xa;❌ No roster commits&#xa;❌ No transactions&#xa;❌ No budget impact" style="text;html=1;strokeColor=none;fillColor=#FEF3C7;align=left;verticalAlign=top;whiteSpace=wrap;rounded=1;fontSize=14;fontColor=#92400E;spacingLeft=10;spacingTop=10;" parent="1" vertex="1">
          <mxGeometry x="100" y="260" width="200" height="180" as="geometry" />
        </mxCell>
        
        <!-- Real Draft Section -->
        <mxCell id="real-section" value="" style="rounded=1;whiteSpace=wrap;html=1;fillColor=#DBEAFE;strokeColor=#3B82F6;strokeWidth=2;dashed=1;" parent="1" vertex="1">
          <mxGeometry x="750" y="100" width="600" height="700" as="geometry" />
        </mxCell>
        
        <mxCell id="real-title" value="🏆 Real Draft (League)" style="text;html=1;strokeColor=none;fillColor=none;align=center;verticalAlign=middle;whiteSpace=wrap;rounded=0;fontSize=18;fontStyle=1;fontColor=#1E3A8A;" parent="1" vertex="1">
          <mxGeometry x="950" y="110" width="200" height="30" as="geometry" />
        </mxCell>
        
        <!-- Real Draft Flow -->
        <mxCell id="real-1" value="Schedule Draft" style="rounded=1;whiteSpace=wrap;html=1;fillColor=#BFDBFE;strokeColor=#3B82F6;" parent="1" vertex="1">
          <mxGeometry x="800" y="160" width="120" height="60" as="geometry" />
        </mxCell>
        
        <mxCell id="real-2" value="60-min Preview" style="rounded=1;whiteSpace=wrap;html=1;fillColor=#BFDBFE;strokeColor=#3B82F6;" parent="1" vertex="1">
          <mxGeometry x="980" y="160" width="120" height="60" as="geometry" />
        </mxCell>
        
        <mxCell id="real-3" value="Draft Goes Live" style="rounded=1;whiteSpace=wrap;html=1;fillColor=#BFDBFE;strokeColor=#3B82F6;" parent="1" vertex="1">
          <mxGeometry x="1160" y="160" width="120" height="60" as="geometry" />
        </mxCell>
        
        <mxCell id="real-arrow-1" value="" style="endArrow=classic;html=1;strokeColor=#3B82F6;strokeWidth=2;" parent="1" source="real-1" target="real-2" edge="1">
          <mxGeometry width="50" height="50" relative="1" as="geometry" />
        </mxCell>
        
        <mxCell id="real-arrow-2" value="" style="endArrow=classic;html=1;strokeColor=#3B82F6;strokeWidth=2;" parent="1" source="real-2" target="real-3" edge="1">
          <mxGeometry width="50" height="50" relative="1" as="geometry" />
        </mxCell>
        
        <!-- Real Features -->
        <mxCell id="real-features" value="Features:&#xa;📅 Scheduled date/time&#xa;⏰ 60-min preview&#xa;👥 All managers required&#xa;🔒 One-time event&#xa;✅ Creates rosters&#xa;✅ Records transactions&#xa;✅ Updates budgets" style="text;html=1;strokeColor=none;fillColor=#DBEAFE;align=left;verticalAlign=top;whiteSpace=wrap;rounded=1;fontSize=14;fontColor=#1E3A8A;spacingLeft=10;spacingTop=10;" parent="1" vertex="1">
          <mxGeometry x="800" y="260" width="200" height="180" as="geometry" />
        </mxCell>
        
        <!-- Timer System -->
        <mxCell id="timer-section" value="Pick Timer System" style="rounded=1;whiteSpace=wrap;html=1;fillColor=#F3F4F6;strokeColor=#6B7280;strokeWidth=2;fontSize=16;fontStyle=1;" parent="1" vertex="1">
          <mxGeometry x="400" y="500" width="600" height="60" as="geometry" />
        </mxCell>
        
        <mxCell id="timer-1" value="Timer Expires" style="rounded=1;whiteSpace=wrap;html=1;fillColor=#FEE2E2;strokeColor=#EF4444;" parent="1" vertex="1">
          <mxGeometry x="450" y="600" width="120" height="60" as="geometry" />
        </mxCell>
        
        <mxCell id="timer-2" value="Auto-pick BPA" style="rounded=1;whiteSpace=wrap;html=1;fillColor=#DCFCE7;strokeColor=#22C55E;" parent="1" vertex="1">
          <mxGeometry x="640" y="600" width="120" height="60" as="geometry" />
        </mxCell>
        
        <mxCell id="timer-3" value="Next Team" style="rounded=1;whiteSpace=wrap;html=1;fillColor=#DBEAFE;strokeColor=#3B82F6;" parent="1" vertex="1">
          <mxGeometry x="830" y="600" width="120" height="60" as="geometry" />
        </mxCell>
        
        <mxCell id="timer-arrow-1" value="" style="endArrow=classic;html=1;strokeColor=#6B7280;strokeWidth=2;" parent="1" source="timer-1" target="timer-2" edge="1">
          <mxGeometry width="50" height="50" relative="1" as="geometry" />
        </mxCell>
        
        <mxCell id="timer-arrow-2" value="" style="endArrow=classic;html=1;strokeColor=#6B7280;strokeWidth=2;" parent="1" source="timer-2" target="timer-3" edge="1">
          <mxGeometry width="50" height="50" relative="1" as="geometry" />
        </mxCell>
        
      </root>
    </mxGraphModel>
  </diagram>
</mxfile>
